<?xml version="1.0" encoding="utf-8" standalone="no"?>
<!DOCTYPE svg PUBLIC "-//W3C//DTD SVG 1.1//EN"
  "http://www.w3.org/Graphics/SVG/1.1/DTD/svg11.dtd">
<!-- Created with matplotlib (https://matplotlib.org/) -->
<svg height="345.6pt" version="1.1" viewBox="0 0 460.8 345.6" width="460.8pt" xmlns="http://www.w3.org/2000/svg" xmlns:xlink="http://www.w3.org/1999/xlink">
 <defs>
  <style type="text/css">
*{stroke-linecap:butt;stroke-linejoin:round;}
  </style>
 </defs>
 <g id="figure_1">
  <g id="patch_1">
   <path d="M 0 345.6 
L 460.8 345.6 
L 460.8 0 
L 0 0 
z
" style="fill:#ffffff;"/>
  </g>
  <g id="axes_1">
   <g id="patch_2">
    <path d="M 57.6 307.584 
L 414.72 307.584 
L 414.72 41.472 
L 57.6 41.472 
z
" style="fill:#ffffff;"/>
   </g>
   <g id="matplotlib.axis_1">
    <g id="xtick_1">
     <g id="line2d_1">
      <defs>
       <path d="M 0 0 
L 0 3.5 
" id="m131a5e4595" style="stroke:#000000;stroke-width:0.8;"/>
      </defs>
      <g>
       <use style="stroke:#000000;stroke-width:0.8;" x="73.832727" xlink:href="#m131a5e4595" y="307.584"/>
      </g>
     </g>
     <g id="text_1">
      <!-- 0 -->
      <defs>
       <path d="M 31.78125 66.40625 
Q 24.171875 66.40625 20.328125 58.90625 
Q 16.5 51.421875 16.5 36.375 
Q 16.5 21.390625 20.328125 13.890625 
Q 24.171875 6.390625 31.78125 6.390625 
Q 39.453125 6.390625 43.28125 13.890625 
Q 47.125 21.390625 47.125 36.375 
Q 47.125 51.421875 43.28125 58.90625 
Q 39.453125 66.40625 31.78125 66.40625 
z
M 31.78125 74.21875 
Q 44.046875 74.21875 50.515625 64.515625 
Q 56.984375 54.828125 56.984375 36.375 
Q 56.984375 17.96875 50.515625 8.265625 
Q 44.046875 -1.421875 31.78125 -1.421875 
Q 19.53125 -1.421875 13.0625 8.265625 
Q 6.59375 17.96875 6.59375 36.375 
Q 6.59375 54.828125 13.0625 64.515625 
Q 19.53125 74.21875 31.78125 74.21875 
z
" id="DejaVuSans-48"/>
      </defs>
      <g transform="translate(70.651477 322.182437)scale(0.1 -0.1)">
       <use xlink:href="#DejaVuSans-48"/>
      </g>
     </g>
    </g>
    <g id="xtick_2">
     <g id="line2d_2">
      <g>
       <use style="stroke:#000000;stroke-width:0.8;" x="138.893758" xlink:href="#m131a5e4595" y="307.584"/>
      </g>
     </g>
     <g id="text_2">
      <!-- 100 -->
      <defs>
       <path d="M 12.40625 8.296875 
L 28.515625 8.296875 
L 28.515625 63.921875 
L 10.984375 60.40625 
L 10.984375 69.390625 
L 28.421875 72.90625 
L 38.28125 72.90625 
L 38.28125 8.296875 
L 54.390625 8.296875 
L 54.390625 0 
L 12.40625 0 
z
" id="DejaVuSans-49"/>
      </defs>
      <g transform="translate(129.350008 322.182437)scale(0.1 -0.1)">
       <use xlink:href="#DejaVuSans-49"/>
       <use x="63.623047" xlink:href="#DejaVuSans-48"/>
       <use x="127.246094" xlink:href="#DejaVuSans-48"/>
      </g>
     </g>
    </g>
    <g id="xtick_3">
     <g id="line2d_3">
      <g>
       <use style="stroke:#000000;stroke-width:0.8;" x="203.95479" xlink:href="#m131a5e4595" y="307.584"/>
      </g>
     </g>
     <g id="text_3">
      <!-- 200 -->
      <defs>
       <path d="M 19.1875 8.296875 
L 53.609375 8.296875 
L 53.609375 0 
L 7.328125 0 
L 7.328125 8.296875 
Q 12.9375 14.109375 22.625 23.890625 
Q 32.328125 33.6875 34.8125 36.53125 
Q 39.546875 41.84375 41.421875 45.53125 
Q 43.3125 49.21875 43.3125 52.78125 
Q 43.3125 58.59375 39.234375 62.25 
Q 35.15625 65.921875 28.609375 65.921875 
Q 23.96875 65.921875 18.8125 64.3125 
Q 13.671875 62.703125 7.8125 59.421875 
L 7.8125 69.390625 
Q 13.765625 71.78125 18.9375 73 
Q 24.125 74.21875 28.421875 74.21875 
Q 39.75 74.21875 46.484375 68.546875 
Q 53.21875 62.890625 53.21875 53.421875 
Q 53.21875 48.921875 51.53125 44.890625 
Q 49.859375 40.875 45.40625 35.40625 
Q 44.1875 33.984375 37.640625 27.21875 
Q 31.109375 20.453125 19.1875 8.296875 
z
" id="DejaVuSans-50"/>
      </defs>
      <g transform="translate(194.41104 322.182437)scale(0.1 -0.1)">
       <use xlink:href="#DejaVuSans-50"/>
       <use x="63.623047" xlink:href="#DejaVuSans-48"/>
       <use x="127.246094" xlink:href="#DejaVuSans-48"/>
      </g>
     </g>
    </g>
    <g id="xtick_4">
     <g id="line2d_4">
      <g>
       <use style="stroke:#000000;stroke-width:0.8;" x="269.015821" xlink:href="#m131a5e4595" y="307.584"/>
      </g>
     </g>
     <g id="text_4">
      <!-- 300 -->
      <defs>
       <path d="M 40.578125 39.3125 
Q 47.65625 37.796875 51.625 33 
Q 55.609375 28.21875 55.609375 21.1875 
Q 55.609375 10.40625 48.1875 4.484375 
Q 40.765625 -1.421875 27.09375 -1.421875 
Q 22.515625 -1.421875 17.65625 -0.515625 
Q 12.796875 0.390625 7.625 2.203125 
L 7.625 11.71875 
Q 11.71875 9.328125 16.59375 8.109375 
Q 21.484375 6.890625 26.8125 6.890625 
Q 36.078125 6.890625 40.9375 10.546875 
Q 45.796875 14.203125 45.796875 21.1875 
Q 45.796875 27.640625 41.28125 31.265625 
Q 36.765625 34.90625 28.71875 34.90625 
L 20.21875 34.90625 
L 20.21875 43.015625 
L 29.109375 43.015625 
Q 36.375 43.015625 40.234375 45.921875 
Q 44.09375 48.828125 44.09375 54.296875 
Q 44.09375 59.90625 40.109375 62.90625 
Q 36.140625 65.921875 28.71875 65.921875 
Q 24.65625 65.921875 20.015625 65.03125 
Q 15.375 64.15625 9.8125 62.3125 
L 9.8125 71.09375 
Q 15.4375 72.65625 20.34375 73.4375 
Q 25.25 74.21875 29.59375 74.21875 
Q 40.828125 74.21875 47.359375 69.109375 
Q 53.90625 64.015625 53.90625 55.328125 
Q 53.90625 49.265625 50.4375 45.09375 
Q 46.96875 40.921875 40.578125 39.3125 
z
" id="DejaVuSans-51"/>
      </defs>
      <g transform="translate(259.472071 322.182437)scale(0.1 -0.1)">
       <use xlink:href="#DejaVuSans-51"/>
       <use x="63.623047" xlink:href="#DejaVuSans-48"/>
       <use x="127.246094" xlink:href="#DejaVuSans-48"/>
      </g>
     </g>
    </g>
    <g id="xtick_5">
     <g id="line2d_5">
      <g>
       <use style="stroke:#000000;stroke-width:0.8;" x="334.076852" xlink:href="#m131a5e4595" y="307.584"/>
      </g>
     </g>
     <g id="text_5">
      <!-- 400 -->
      <defs>
       <path d="M 37.796875 64.3125 
L 12.890625 25.390625 
L 37.796875 25.390625 
z
M 35.203125 72.90625 
L 47.609375 72.90625 
L 47.609375 25.390625 
L 58.015625 25.390625 
L 58.015625 17.1875 
L 47.609375 17.1875 
L 47.609375 0 
L 37.796875 0 
L 37.796875 17.1875 
L 4.890625 17.1875 
L 4.890625 26.703125 
z
" id="DejaVuSans-52"/>
      </defs>
      <g transform="translate(324.533102 322.182437)scale(0.1 -0.1)">
       <use xlink:href="#DejaVuSans-52"/>
       <use x="63.623047" xlink:href="#DejaVuSans-48"/>
       <use x="127.246094" xlink:href="#DejaVuSans-48"/>
      </g>
     </g>
    </g>
    <g id="xtick_6">
     <g id="line2d_6">
      <g>
       <use style="stroke:#000000;stroke-width:0.8;" x="399.137883" xlink:href="#m131a5e4595" y="307.584"/>
      </g>
     </g>
     <g id="text_6">
      <!-- 500 -->
      <defs>
       <path d="M 10.796875 72.90625 
L 49.515625 72.90625 
L 49.515625 64.59375 
L 19.828125 64.59375 
L 19.828125 46.734375 
Q 21.96875 47.46875 24.109375 47.828125 
Q 26.265625 48.1875 28.421875 48.1875 
Q 40.625 48.1875 47.75 41.5 
Q 54.890625 34.8125 54.890625 23.390625 
Q 54.890625 11.625 47.5625 5.09375 
Q 40.234375 -1.421875 26.90625 -1.421875 
Q 22.3125 -1.421875 17.546875 -0.640625 
Q 12.796875 0.140625 7.71875 1.703125 
L 7.71875 11.625 
Q 12.109375 9.234375 16.796875 8.0625 
Q 21.484375 6.890625 26.703125 6.890625 
Q 35.15625 6.890625 40.078125 11.328125 
Q 45.015625 15.765625 45.015625 23.390625 
Q 45.015625 31 40.078125 35.4375 
Q 35.15625 39.890625 26.703125 39.890625 
Q 22.75 39.890625 18.8125 39.015625 
Q 14.890625 38.140625 10.796875 36.28125 
z
" id="DejaVuSans-53"/>
      </defs>
      <g transform="translate(389.594133 322.182437)scale(0.1 -0.1)">
       <use xlink:href="#DejaVuSans-53"/>
       <use x="63.623047" xlink:href="#DejaVuSans-48"/>
       <use x="127.246094" xlink:href="#DejaVuSans-48"/>
      </g>
     </g>
    </g>
   </g>
   <g id="matplotlib.axis_2">
    <g id="ytick_1">
     <g id="line2d_7">
      <defs>
       <path d="M 0 0 
L -3.5 0 
" id="m24ee1485a4" style="stroke:#000000;stroke-width:0.8;"/>
      </defs>
      <g>
       <use style="stroke:#000000;stroke-width:0.8;" x="57.6" xlink:href="#m24ee1485a4" y="295.489185"/>
      </g>
     </g>
     <g id="text_7">
      <!-- −1.00 -->
      <defs>
       <path d="M 10.59375 35.5 
L 73.1875 35.5 
L 73.1875 27.203125 
L 10.59375 27.203125 
z
" id="DejaVuSans-8722"/>
       <path d="M 10.6875 12.40625 
L 21 12.40625 
L 21 0 
L 10.6875 0 
z
" id="DejaVuSans-46"/>
      </defs>
      <g transform="translate(19.954687 299.288403)scale(0.1 -0.1)">
       <use xlink:href="#DejaVuSans-8722"/>
       <use x="83.789062" xlink:href="#DejaVuSans-49"/>
       <use x="147.412109" xlink:href="#DejaVuSans-46"/>
       <use x="179.199219" xlink:href="#DejaVuSans-48"/>
       <use x="242.822266" xlink:href="#DejaVuSans-48"/>
      </g>
     </g>
    </g>
    <g id="ytick_2">
     <g id="line2d_8">
      <g>
       <use style="stroke:#000000;stroke-width:0.8;" x="57.6" xlink:href="#m24ee1485a4" y="265.248942"/>
      </g>
     </g>
     <g id="text_8">
      <!-- −0.75 -->
      <defs>
       <path d="M 8.203125 72.90625 
L 55.078125 72.90625 
L 55.078125 68.703125 
L 28.609375 0 
L 18.3125 0 
L 43.21875 64.59375 
L 8.203125 64.59375 
z
" id="DejaVuSans-55"/>
      </defs>
      <g transform="translate(19.954687 269.048161)scale(0.1 -0.1)">
       <use xlink:href="#DejaVuSans-8722"/>
       <use x="83.789062" xlink:href="#DejaVuSans-48"/>
       <use x="147.412109" xlink:href="#DejaVuSans-46"/>
       <use x="179.199219" xlink:href="#DejaVuSans-55"/>
       <use x="242.822266" xlink:href="#DejaVuSans-53"/>
      </g>
     </g>
    </g>
    <g id="ytick_3">
     <g id="line2d_9">
      <g>
       <use style="stroke:#000000;stroke-width:0.8;" x="57.6" xlink:href="#m24ee1485a4" y="235.008699"/>
      </g>
     </g>
     <g id="text_9">
      <!-- −0.50 -->
      <g transform="translate(19.954687 238.807918)scale(0.1 -0.1)">
       <use xlink:href="#DejaVuSans-8722"/>
       <use x="83.789062" xlink:href="#DejaVuSans-48"/>
       <use x="147.412109" xlink:href="#DejaVuSans-46"/>
       <use x="179.199219" xlink:href="#DejaVuSans-53"/>
       <use x="242.822266" xlink:href="#DejaVuSans-48"/>
      </g>
     </g>
    </g>
    <g id="ytick_4">
     <g id="line2d_10">
      <g>
       <use style="stroke:#000000;stroke-width:0.8;" x="57.6" xlink:href="#m24ee1485a4" y="204.768457"/>
      </g>
     </g>
     <g id="text_10">
      <!-- −0.25 -->
      <g transform="translate(19.954687 208.567675)scale(0.1 -0.1)">
       <use xlink:href="#DejaVuSans-8722"/>
       <use x="83.789062" xlink:href="#DejaVuSans-48"/>
       <use x="147.412109" xlink:href="#DejaVuSans-46"/>
       <use x="179.199219" xlink:href="#DejaVuSans-50"/>
       <use x="242.822266" xlink:href="#DejaVuSans-53"/>
      </g>
     </g>
    </g>
    <g id="ytick_5">
     <g id="line2d_11">
      <g>
       <use style="stroke:#000000;stroke-width:0.8;" x="57.6" xlink:href="#m24ee1485a4" y="174.528214"/>
      </g>
     </g>
     <g id="text_11">
      <!-- 0.00 -->
      <g transform="translate(28.334375 178.327433)scale(0.1 -0.1)">
       <use xlink:href="#DejaVuSans-48"/>
       <use x="63.623047" xlink:href="#DejaVuSans-46"/>
       <use x="95.410156" xlink:href="#DejaVuSans-48"/>
       <use x="159.033203" xlink:href="#DejaVuSans-48"/>
      </g>
     </g>
    </g>
    <g id="ytick_6">
     <g id="line2d_12">
      <g>
       <use style="stroke:#000000;stroke-width:0.8;" x="57.6" xlink:href="#m24ee1485a4" y="144.287971"/>
      </g>
     </g>
     <g id="text_12">
      <!-- 0.25 -->
      <g transform="translate(28.334375 148.08719)scale(0.1 -0.1)">
       <use xlink:href="#DejaVuSans-48"/>
       <use x="63.623047" xlink:href="#DejaVuSans-46"/>
       <use x="95.410156" xlink:href="#DejaVuSans-50"/>
       <use x="159.033203" xlink:href="#DejaVuSans-53"/>
      </g>
     </g>
    </g>
    <g id="ytick_7">
     <g id="line2d_13">
      <g>
       <use style="stroke:#000000;stroke-width:0.8;" x="57.6" xlink:href="#m24ee1485a4" y="114.047729"/>
      </g>
     </g>
     <g id="text_13">
      <!-- 0.50 -->
      <g transform="translate(28.334375 117.846947)scale(0.1 -0.1)">
       <use xlink:href="#DejaVuSans-48"/>
       <use x="63.623047" xlink:href="#DejaVuSans-46"/>
       <use x="95.410156" xlink:href="#DejaVuSans-53"/>
       <use x="159.033203" xlink:href="#DejaVuSans-48"/>
      </g>
     </g>
    </g>
    <g id="ytick_8">
     <g id="line2d_14">
      <g>
       <use style="stroke:#000000;stroke-width:0.8;" x="57.6" xlink:href="#m24ee1485a4" y="83.807486"/>
      </g>
     </g>
     <g id="text_14">
      <!-- 0.75 -->
      <g transform="translate(28.334375 87.606705)scale(0.1 -0.1)">
       <use xlink:href="#DejaVuSans-48"/>
       <use x="63.623047" xlink:href="#DejaVuSans-46"/>
       <use x="95.410156" xlink:href="#DejaVuSans-55"/>
       <use x="159.033203" xlink:href="#DejaVuSans-53"/>
      </g>
     </g>
    </g>
    <g id="ytick_9">
     <g id="line2d_15">
      <g>
       <use style="stroke:#000000;stroke-width:0.8;" x="57.6" xlink:href="#m24ee1485a4" y="53.567243"/>
      </g>
     </g>
     <g id="text_15">
      <!-- 1.00 -->
      <g transform="translate(28.334375 57.366462)scale(0.1 -0.1)">
       <use xlink:href="#DejaVuSans-49"/>
       <use x="63.623047" xlink:href="#DejaVuSans-46"/>
       <use x="95.410156" xlink:href="#DejaVuSans-48"/>
       <use x="159.033203" xlink:href="#DejaVuSans-48"/>
      </g>
     </g>
    </g>
   </g>
   <g id="line2d_16">
    <path clip-path="url(#pca9feab856)" d="M 73.832727 206.265331 
L 75.784558 239.341912 
L 77.085779 258.340251 
L 78.386999 273.997268 
L 79.68822 285.688767 
L 80.33883 289.895061 
L 80.989441 292.948647 
L 81.640051 294.819015 
L 82.290661 295.487477 
L 82.941272 294.947354 
L 83.591882 293.204043 
L 84.242492 290.274962 
L 84.893103 286.189378 
L 85.543713 280.988113 
L 86.844934 267.457043 
L 88.146154 250.221195 
L 89.447375 229.967706 
L 91.399206 195.72073 
L 95.302868 124.775866 
L 96.604088 103.863228 
L 97.905309 85.76778 
L 99.206529 71.21093 
L 99.85714 65.44702 
L 100.50775 60.773014 
L 101.15836 57.235612 
L 101.808971 54.870159 
L 102.459581 53.700289 
L 103.110191 53.737693 
L 103.760802 54.981995 
L 104.411412 57.420763 
L 105.062022 61.029631 
L 105.712633 65.772539 
L 106.363243 71.602098 
L 107.664463 86.277903 
L 108.965684 104.471971 
L 110.917515 136.741797 
L 116.773008 241.04997 
L 118.074228 259.794889 
L 119.375449 275.140494 
L 120.026059 281.341371 
L 120.67667 286.475005 
L 121.32728 290.490105 
L 121.97789 293.346551 
L 122.628501 295.015804 
L 123.279111 295.481185 
L 123.929721 294.738044 
L 124.580332 292.793805 
L 125.230942 289.667897 
L 125.881552 285.39155 
L 126.532163 280.007494 
L 127.833383 266.141965 
L 129.134604 248.624085 
L 130.435824 228.152236 
L 132.387655 193.715366 
L 136.291317 122.929076 
L 137.592538 102.22254 
L 138.893758 84.398603 
L 140.194979 70.167849 
L 140.845589 64.583465 
L 141.4962 60.097614 
L 142.14681 56.755114 
L 142.79742 54.589365 
L 143.448031 53.622005 
L 144.098641 53.8627 
L 144.749251 55.309045 
L 145.399862 57.946588 
L 146.050472 61.748977 
L 146.701082 66.678218 
L 148.002303 79.709487 
L 149.303523 96.520879 
L 150.604744 116.442177 
L 152.556575 150.391697 
L 157.110847 232.425689 
L 158.412068 252.371211 
L 159.713288 269.213379 
L 161.014509 282.280748 
L 161.665119 287.229593 
L 162.31573 291.052363 
L 162.96634 293.710863 
L 163.61695 295.178529 
L 164.267561 295.440697 
L 164.918171 294.494747 
L 165.568781 292.350131 
L 166.219392 289.028278 
L 166.870002 284.562378 
L 167.520612 278.997052 
L 168.821833 264.800984 
L 170.123053 247.006026 
L 171.424274 226.321605 
L 173.376105 191.704577 
L 177.279767 121.096873 
L 178.580987 100.602294 
L 179.882208 83.054908 
L 181.183429 69.154274 
L 181.834039 63.750995 
L 182.484649 59.454566 
L 183.13526 56.307915 
L 183.78587 54.342482 
L 184.43648 53.577905 
L 185.087091 54.021823 
L 185.737701 55.669802 
L 186.388311 58.505374 
L 187.038921 62.500208 
L 187.689532 67.614389 
L 188.990752 80.985722 
L 190.291973 98.086298 
L 191.593194 118.234372 
L 193.545025 152.388034 
L 197.448686 223.401 
L 198.749907 244.409186 
L 200.051128 262.631439 
L 201.352348 277.341295 
L 202.002959 283.189661 
L 202.653569 287.952317 
L 203.304179 291.581677 
L 203.95479 294.041478 
L 204.6054 295.307142 
L 205.25601 295.366023 
L 205.906621 294.217532 
L 206.557231 291.873145 
L 207.207841 288.356287 
L 207.858451 283.702095 
L 208.509062 277.957075 
L 209.810282 263.434481 
L 211.111503 245.367475 
L 213.063334 213.228462 
L 218.918827 108.813062 
L 220.220047 89.947461 
L 221.521268 74.453828 
L 222.822489 62.949845 
L 223.473099 58.844053 
L 224.123709 55.894139 
L 224.77432 54.129578 
L 225.42493 53.568 
L 226.07554 54.215016 
L 226.72615 56.064163 
L 227.376761 59.096962 
L 228.027371 63.283113 
L 228.677981 68.580788 
L 229.979202 82.288403 
L 231.280423 99.673329 
L 232.581643 120.042482 
L 234.533474 154.390631 
L 238.437136 225.254517 
L 239.738357 246.059395 
L 241.039577 264.01255 
L 242.340798 278.398247 
L 242.991408 284.067852 
L 243.642019 288.642973 
L 244.292629 292.077897 
L 244.943239 294.338304 
L 245.59385 295.401608 
L 246.24446 295.257185 
L 246.89507 293.906478 
L 247.54568 291.362983 
L 248.196291 287.652113 
L 248.846901 282.810947 
L 249.497511 276.887855 
L 250.798732 262.042842 
L 252.099953 243.708896 
L 254.051784 211.296068 
L 259.907276 107.114844 
L 261.208497 88.505462 
L 262.509718 73.325536 
L 263.160328 67.216778 
L 263.810938 62.180241 
L 264.461549 58.266247 
L 265.112159 55.513905 
L 265.762769 53.950714 
L 266.413379 53.592294 
L 267.06399 54.442226 
L 267.7146 56.492017 
L 268.36521 59.721187 
L 269.015821 64.09747 
L 269.666431 69.577141 
L 270.967652 83.617164 
L 272.268872 101.281523 
L 273.570093 121.865997 
L 275.521924 156.398921 
L 279.425586 227.093693 
L 280.726806 247.689379 
L 282.028027 265.36836 
L 283.329248 279.425831 
L 283.979858 284.915073 
L 284.630468 289.301365 
L 285.281079 292.540883 
L 285.931689 294.601256 
L 286.582299 295.4619 
L 287.232909 295.114214 
L 287.88352 293.561672 
L 288.53413 290.819788 
L 289.18474 286.915956 
L 289.835351 281.889184 
L 291.136571 268.678437 
L 292.437792 251.714218 
L 293.739013 231.672836 
L 295.690844 197.614653 
L 300.245116 115.692956 
L 301.546336 95.868765 
L 302.847557 79.180479 
L 304.148778 66.293405 
L 304.799388 61.4424 
L 305.449998 57.721312 
L 306.100608 55.167319 
L 306.751219 53.805941 
L 307.401829 53.65078 
L 308.052439 54.703387 
L 308.70305 56.953243 
L 309.35366 60.37787 
L 310.00427 64.943049 
L 310.654881 70.603167 
L 311.956101 84.971628 
L 313.257322 102.910427 
L 314.558543 123.704401 
L 317.160984 170.461137 
L 320.414035 228.918008 
L 321.715256 249.298679 
L 323.016477 266.698488 
L 324.317697 280.423759 
L 324.968308 285.731085 
L 325.618918 289.927308 
L 326.269528 292.970503 
L 326.920138 294.83026 
L 327.570749 295.488 
L 328.221359 294.937149 
L 328.871969 293.183213 
L 329.52258 290.243714 
L 330.17319 286.148025 
L 330.8238 280.937067 
L 332.125021 267.388235 
L 333.426242 250.137366 
L 334.727462 229.8722 
L 336.679293 195.614951 
L 340.582955 124.677962 
L 341.884176 103.776062 
L 343.185396 85.694828 
L 344.486617 71.1551 
L 345.137227 65.400633 
L 345.787837 60.736533 
L 346.438448 57.209401 
L 347.089058 54.85448 
L 347.739668 53.695299 
L 348.390279 53.743441 
L 349.040889 54.998425 
L 349.691499 57.447711 
L 350.34211 61.066826 
L 350.99272 65.81961 
L 351.64333 71.658575 
L 352.944551 86.351411 
L 354.245772 104.559578 
L 356.197602 136.843868 
L 362.053095 241.139672 
L 363.354316 259.871057 
L 364.655537 275.200092 
L 365.306147 281.391747 
L 365.956757 286.515657 
L 366.607367 290.520625 
L 367.257978 293.366636 
L 367.908588 295.025252 
L 368.559198 295.479902 
L 369.209809 294.726042 
L 369.860419 292.771206 
L 370.511029 289.634925 
L 371.16164 285.348535 
L 371.81225 279.954865 
L 373.113471 266.071778 
L 374.414691 248.539138 
L 375.715912 228.055916 
L 377.667743 193.609286 
L 381.571405 122.831929 
L 382.872625 102.136442 
L 384.173846 84.326988 
L 385.475066 70.113571 
L 386.125677 64.538714 
L 386.776287 60.062837 
L 387.426897 56.730659 
L 388.077508 54.575476 
L 388.728118 53.618821 
L 389.378728 53.870252 
L 390.029339 55.327258 
L 390.679949 57.97528 
L 391.330559 61.787861 
L 391.98117 66.726906 
L 393.28239 79.77623 
L 394.583611 96.603017 
L 395.884831 116.536435 
L 397.836662 150.496979 
L 398.487273 162.452267 
L 398.487273 162.452267 
" style="fill:none;stroke:#1f77b4;stroke-linecap:square;stroke-width:1.5;"/>
   </g>
   <g id="patch_3">
    <path d="M 57.6 307.584 
L 57.6 41.472 
" style="fill:none;stroke:#000000;stroke-linecap:square;stroke-linejoin:miter;stroke-width:0.8;"/>
   </g>
   <g id="patch_4">
    <path d="M 414.72 307.584 
L 414.72 41.472 
" style="fill:none;stroke:#000000;stroke-linecap:square;stroke-linejoin:miter;stroke-width:0.8;"/>
   </g>
   <g id="patch_5">
    <path d="M 57.6 307.584 
L 414.72 307.584 
" style="fill:none;stroke:#000000;stroke-linecap:square;stroke-linejoin:miter;stroke-width:0.8;"/>
   </g>
   <g id="patch_6">
    <path d="M 57.6 41.472 
L 414.72 41.472 
" style="fill:none;stroke:#000000;stroke-linecap:square;stroke-linejoin:miter;stroke-width:0.8;"/>
   </g>
  </g>
 </g>
 <defs>
  <clipPath id="pca9feab856">
   <rect height="266.112" width="357.12" x="57.6" y="41.472"/>
  </clipPath>
 </defs>
</svg>
